<svg id="Layer_1" data-name="Layer 1" xmlns="http://www.w3.org/2000/svg" viewBox="0 0 414.51 376.83"><defs><style>.cls-1{fill:#3d4b72;}.cls-2{fill:#dbca95;}.cls-3{fill:#0b91ab;}.cls-4{fill:#566d9b;}.cls-5{fill:#6680bc;}</style></defs><path class="cls-1" d="M0,31H184.06a23.19,23.19,0,0,1,23.19,23.19V300a29.75,29.75,0,0,1-29.75,29.75H0a0,0,0,0,1,0,0V31A0,0,0,0,1,0,31Z"/><path class="cls-2" d="M103.63,202.86a56.47,56.47,0,1,1,56.46-56.46A56.53,56.53,0,0,1,103.63,202.86Zm0-107.93a51.47,51.47,0,1,0,51.46,51.47A51.53,51.53,0,0,0,103.63,94.93Z"/><path class="cls-2" d="M116.13,179.88a4.47,4.47,0,0,1-1.89-4.47c.27-1.88-.07-3.55-1.78-4.71a1.91,1.91,0,0,1-.78-1.88c0-.54,0-1.08,0-1.61,0-6.52-.21-6.91-5.27-11.16a2.54,2.54,0,0,0-2.17-.48c-3.53.46-6-.95-8.59-3.44-3-2.87-1.76-6-1.79-9.14,0-1,1.48-1.48,2.11-2.34,2.52-3.46,5.76-5.17,10.11-4.28,1.83.37,2.65-1.09,3.67-2.1.71-.71,1.33-1.27,2.08-.13,2.07,3.16,5.13,3.59,8.58,3.35,1.61-.12,3-.23,4.12-1.58,1.43-1.68,1.65-3.61.27-5-2-2-3.56-2.13-5.47-.31-1.41,1.34-5.29,1.32-6.69-.05-2.35-2.29-2.35-2.29-4.73.1a22.72,22.72,0,0,0-2,2.05c-1.16,1.5-2.75,1.34-4.25,1.1s-2.13-3.67-.86-5.05,2.8-2.78,4.19-4.18c.7-.69,1.58-.4,2.38-.45a3.1,3.1,0,0,0,2.18-.55c1.69-1.52,1.75-2,.15-3.56-1.9-1.91-1.87-3.12.09-4.9a13.65,13.65,0,0,0,2.14-2.16c1.37-2,3.32-2,5.4-2a2.7,2.7,0,0,1,2.13,1.45c2.62,3.94,6.6,2.43,10.12,2.5,1,0,1.64-1.29,2.36-2.06a3.22,3.22,0,0,1,2.83-1.17c.95.09,1.93-.1,2.86,0a4.78,4.78,0,0,0,5-2.33,31.46,31.46,0,0,1,6.08,7.43,53,53,0,0,1,8.81,28.28,30.57,30.57,0,0,0-2.94,2.86c-.88,1.09-1.47,1-2.35,0-2-2.12-4.24-4-6.08-6.29-1.58-1.93-3.44-2.3-5.67-2.1-1.53.14-2.49.92-2.45,2.47a3.14,3.14,0,0,1-1.22,2.62c-.75.68-1.39,1.49-2.17,2.13s-.71,1.24,0,2c2.41,2.47,2.54,4.19-.12,6.37-3.75,3.05-5.78,6.59-4.86,11.51a2,2,0,0,1-.78,2.06,3.78,3.78,0,0,0-1.51,3.92c.39,2.77-.2,5.17-2.61,6.88-.47.45-1,.89-1.42,1.35-2.16,2.15-3.93,2.16-6.07.06C116.93,180.6,116.52,180.25,116.13,179.88Z"/><path class="cls-2" d="M49.92,144.36c.64-.58,1.33-1.2,1.27.39a1.91,1.91,0,0,0,.86,1.67,3.75,3.75,0,0,1,1.44,3.78,2.69,2.69,0,0,0,.23,2.08A5.54,5.54,0,0,0,55.48,154c1,.49,1.38-.74,1.72-1.27,2-3.16,5-3.15,8.2-2.81,1,.1,1.4.82,2,1.36,1.55,1.37,2.59,3.43,5.25,3.12.94-.12,1.35,1.2,2,1.83,1.63,1.51,2.9,3.2,5.69,3,1.67-.11,3.1,1.88,3.75,3.45A3.57,3.57,0,0,1,83,167.21,4.49,4.49,0,0,0,80.93,172a2.17,2.17,0,0,1-.92,2c-2.63,2.6-5.23,5.23-7.85,7.85-.45.46-1.08.88-.92,1.63.44,2.14-1,3.29-2.32,4.48a38.44,38.44,0,0,1-7.08-7.11c0-2.27,0-4.54.1-6.8a3.52,3.52,0,0,0-1.43-3.42c-4-2.78-5.63-6.53-4.76-11.34,0-.17,0-.36,0-.54a2.39,2.39,0,0,0-.88-2.2c-1.66-1.55-3.25-3.16-4.87-4.74C49.37,149.31,48.92,146.84,49.92,144.36Z"/><path class="cls-2" d="M62.66,111c1.2,0,2.39,0,3.58,0a1.77,1.77,0,0,0,1.62-.56c.73-1,1.3-.76,2.1,0,1,1,.2,1.38-.33,2-1.07,1.25-2.26,2.09-4,1.73-3.59-.75-4.82,2.43-6.9,4.17-.11.09-.2.39-.14.45,1,1.17,1.88,2.71,3.33,3.1,1.22.34,2.76.62,4-.61,1-1,1.79-2.4,3.63-2.64,3.39-.45,4.55,2.34,6.49,4,.54.47,0,.85-.32,1.18-1.68,1.69-3.41,3.35-5,5.08a2.59,2.59,0,0,1-2.49.63,7.12,7.12,0,0,0-7.41,3.08,18.13,18.13,0,0,1-2.39,2.41c-.67.62-1.11,1.25-.61,2.18a1,1,0,0,1-.29,1.29c-.31.36-.6,0-.71-.16-1.49-2.51-4-2.44-6.4-2.52A53.51,53.51,0,0,1,62.66,111Z"/><path class="cls-2" d="M80.8,105.35l4.42.09c1.2,0,1.72-1,2.38-1.69a3.18,3.18,0,0,1,2.66-1.11c2.26.08,4.53,0,6.79,0a2.35,2.35,0,0,1,1.53.35c2.57,1.87,2.63,2.38.42,4.59a38.36,38.36,0,0,0-2.76,2.8c-1.78,2.21-3.83,3.59-6.86,3.07-1.56-.27-2.09,1.37-3.12,2.1-.64.47-1.11,1.78-1.84,1.35-1.06-.62-2.47-1.47-2.43-2.86.05-1.68-.81-2.62-1.85-3.62-1.85-1.8-1.83-1.82-.31-3.66l-.06,0c.48-.42,1.26-.6,1.09-1.49Z"/><path class="cls-2" d="M79.83,106.78c-1.59,0-3.18-.1-4.78-.09-1.31,0-1.87,1.2-2.62,2s-1.41.94-2.08,0c-.47-.68-1.76-1-1.38-2,.43-1.14,1.65-1.11,2.78-1.12,2,0,3.91.39,5.67-1.33.91-.89,2.73-.17,4.14-.27.11.8-.61,1-.76,1.45l.06,0c-.44.44-1.26.6-1.09,1.49Z"/><path class="cls-2" d="M134.51,166.7c.44,4.84-.28,6.13-4.21,8.14C128.85,170.78,132.27,169.28,134.51,166.7Z"/><path class="cls-3" d="M79.77,106.8c-.17-.89.65-1,1.09-1.49C81,106.2,80.25,106.38,79.77,106.8Z"/><path class="cls-2" d="M152.21,169.52c-2.26.08-2,1.43-4.3,1.44-.53,0-2.33.85-2.51,1.43-1.31,4.13-1.44,3.23-1.27,4.41s2,1.77,3.06,1C150.42,175.26,153.32,169.48,152.21,169.52Z"/><path class="cls-2" d="M136.1,237.51v21.18H120.22a15.47,15.47,0,0,0-30.38,0H71.17V237.51Z"/><path class="cls-2" d="M136.1,264.82V286H71.17V264.82H89.9a15.47,15.47,0,0,0,30.26,0Z"/><circle class="cls-2" cx="104.89" cy="261.75" r="10.31"/><rect x="233.85" width="180.66" height="376.83" rx="19.96"/><rect class="cls-4" x="237.96" y="4.16" width="171.63" height="359.36" rx="19.96"/><path class="cls-5" d="M257.92,4.16H389.63a20,20,0,0,1,20,20V343.56"/></svg>